<svg width="13" height="18" viewBox="0 0 13 18" fill="none" xmlns="http://www.w3.org/2000/svg">
<path d="M6.5 13C6.06902 13 5.6557 12.8288 5.35095 12.524C5.04621 12.2193 4.875 11.806 4.875 11.375C4.875 10.4731 5.59812 9.75 6.5 9.75C6.93098 9.75 7.3443 9.92121 7.64905 10.226C7.95379 10.5307 8.125 10.944 8.125 11.375C8.125 11.806 7.95379 12.2193 7.64905 12.524C7.3443 12.8288 6.93098 13 6.5 13ZM11.375 15.4375V7.3125H1.625V15.4375H11.375ZM11.375 5.6875C11.806 5.6875 12.2193 5.85871 12.524 6.16345C12.8288 6.4682 13 6.88152 13 7.3125V15.4375C13 15.8685 12.8288 16.2818 12.524 16.5865C12.2193 16.8913 11.806 17.0625 11.375 17.0625H1.625C1.19402 17.0625 0.780698 16.8913 0.475951 16.5865C0.171205 16.2818 0 15.8685 0 15.4375V7.3125C0 6.41062 0.723125 5.6875 1.625 5.6875H2.4375V4.0625C2.4375 2.98506 2.86551 1.95175 3.62738 1.18988C4.38925 0.428012 5.42256 0 6.5 0C7.03349 0 7.56177 0.10508 8.05465 0.309239C8.54754 0.513399 8.99538 0.812641 9.37262 1.18988C9.74986 1.56712 10.0491 2.01496 10.2533 2.50785C10.4574 3.00073 10.5625 3.529 10.5625 4.0625V5.6875H11.375ZM6.5 1.625C5.85353 1.625 5.23355 1.88181 4.77643 2.33893C4.31931 2.79605 4.0625 3.41603 4.0625 4.0625V5.6875H8.9375V4.0625C8.9375 3.41603 8.68069 2.79605 8.22357 2.33893C7.76645 1.88181 7.14647 1.625 6.5 1.625Z" fill="white"/>
</svg>
